ISO-10303-21;
HEADER;
FILE_DESCRIPTION (( 'STEP AP203' ),
    '1' );
FILE_NAME ('1020117-Êú±ÛÌ×Í²¿Ç-V1.0.STEP',
    '2025-04-27T04:23:09',
    ( '' ),
    ( '' ),
    'SwSTEP 2.0',
    'SolidWorks 2024',
    '' );
FILE_SCHEMA (( 'CONFIG_CONTROL_DESIGN' ));
ENDSEC;

DATA;
#1 = APPLICATION_PROTOCOL_DEFINITION ( 'international standard', 'config_control_design', 1994, #192 ) ;
#2 = CARTESIAN_POINT ( 'NONE',  ( 0.000000000000000000, 0.000000000000000000, 0.000000000000000000 ) ) ;
#3 = AXIS2_PLACEMENT_3D ( 'NONE', #97, #40, #188 ) ;
#4 = DIRECTION ( 'NONE',  ( 1.000000000000000000, 0.000000000000000000, 0.000000000000000000 ) ) ;
#5 = ADVANCED_FACE ( 'NONE', ( #236, #148 ), #83, .F. ) ;
#6 = PRODUCT_DEFINITION_SHAPE ( 'NONE', 'NONE',  #118 ) ;
#7 = ORIENTED_EDGE ( 'NONE', *, *, #37, .F. ) ;
#8 = COORDINATED_UNIVERSAL_TIME_OFFSET ( 8, 0, .AHEAD. ) ;
#9 = ORIENTED_EDGE ( 'NONE', *, *, #168, .F. ) ;
#10 = CIRCLE ( 'NONE', #200, 50.00000000000000000 ) ;
#11 = APPROVAL_ROLE ( '' ) ;
#12 = ORIENTED_EDGE ( 'NONE', *, *, #156, .T. ) ;
#13 = DATE_AND_TIME ( #84, #92 ) ;
#14 = CARTESIAN_POINT ( 'NONE',  ( 0.000000000000000000, 0.000000000000000000, 0.000000000000000000 ) ) ;
#15 = DATE_TIME_ROLE ( 'creation_date' ) ;
#16 = DIRECTION ( 'NONE',  ( 0.000000000000000000, 0.000000000000000000, 1.000000000000000000 ) ) ;
#17 = APPLICATION_CONTEXT ( 'configuration controlled 3d designs of mechanical parts and assemblies' ) ;
#18 = DIRECTION ( 'NONE',  ( -0.000000000000000000, -0.000000000000000000, -1.000000000000000000 ) ) ;
#19 = DIRECTION ( 'NONE',  ( 1.000000000000000000, 0.000000000000000000, 0.000000000000000000 ) ) ;
#20 = CIRCLE ( 'NONE', #243, 47.50000000000000711 ) ;
#21 = CARTESIAN_POINT ( 'NONE',  ( 0.000000000000000000, 0.000000000000000000, 260.0000000000000000 ) ) ;
#22 = CARTESIAN_POINT ( 'NONE',  ( 0.000000000000000000, 0.000000000000000000, 0.000000000000000000 ) ) ;
#23 = DIRECTION ( 'NONE',  ( 0.000000000000000000, 0.000000000000000000, 1.000000000000000000 ) ) ;
#24 = DIRECTION ( 'NONE',  ( -0.000000000000000000, -0.000000000000000000, -1.000000000000000000 ) ) ;
#25 = CC_DESIGN_PERSON_AND_ORGANIZATION_ASSIGNMENT ( #177, #218, ( #179 ) ) ;
#26 = AXIS2_PLACEMENT_3D ( 'NONE', #153, #138, #215 ) ;
#27 = CALENDAR_DATE ( 2025, 27, 4 ) ;
#28 = ORIENTED_EDGE ( 'NONE', *, *, #210, .T. ) ;
#29 = CALENDAR_DATE ( 2025, 27, 4 ) ;
#30 = VERTEX_POINT ( 'NONE', #122 ) ;
#31 = CARTESIAN_POINT ( 'NONE',  ( -50.00000000000000000, 0.000000000000000000, 260.0000000000000000 ) ) ;
#32 = APPROVAL_PERSON_ORGANIZATION ( #47, #100, #11 ) ;
#33 = SECURITY_CLASSIFICATION_LEVEL ( 'unclassified' ) ;
#34 = EDGE_LOOP ( 'NONE', ( #117, #197 ) ) ;
#35 = EDGE_LOOP ( 'NONE', ( #226, #12, #123, #166 ) ) ;
#36 = CARTESIAN_POINT ( 'NONE',  ( 47.50000000000000711, 5.817072295949929004E-15, 260.0000000000000000 ) ) ;
#37 = EDGE_CURVE ( 'NONE', #144, #54, #242, .T. ) ;
#38 = AXIS2_PLACEMENT_3D ( 'NONE', #21, #59, #41 ) ;
#39 = CC_DESIGN_PERSON_AND_ORGANIZATION_ASSIGNMENT ( #145, #125, ( #161 ) ) ;
#40 = DIRECTION ( 'NONE',  ( -0.000000000000000000, -0.000000000000000000, -1.000000000000000000 ) ) ;
#41 = DIRECTION ( 'NONE',  ( -1.000000000000000000, 0.000000000000000000, 0.000000000000000000 ) ) ;
#42 = LOCAL_TIME ( 12, 23, 9.000000000000000000, #143 ) ;
#43 = CARTESIAN_POINT ( 'NONE',  ( -47.50000000000000711, 0.000000000000000000, 0.000000000000000000 ) ) ;
#44 = APPROVAL ( #141, 'æœª' ) ;
#45 = APPROVAL_STATUS ( 'not_yet_approved' ) ;
#46 = EDGE_CURVE ( 'NONE', #51, #48, #225, .T. ) ;
#47 = PERSON_AND_ORGANIZATION ( #230, #70 ) ;
#48 = VERTEX_POINT ( 'NONE', #239 ) ;
#49 = APPROVAL_DATE_TIME ( #180, #100 ) ;
#50 = DIRECTION ( 'NONE',  ( 1.000000000000000000, 0.000000000000000000, -0.000000000000000000 ) ) ;
#51 = VERTEX_POINT ( 'NONE', #67 ) ;
#52 = AXIS2_PLACEMENT_3D ( 'NONE', #233, #173, #114 ) ;
#53 = COORDINATED_UNIVERSAL_TIME_OFFSET ( 8, 0, .AHEAD. ) ;
#54 = VERTEX_POINT ( 'NONE', #91 ) ;
#55 = ADVANCED_BREP_SHAPE_REPRESENTATION ( '1020117-\X2\7ad681c259577b5258f3\X0\-V1.0', ( #77, #26 ), #174 ) ;
#56 = EDGE_CURVE ( 'NONE', #48, #54, #96, .T. ) ;
#57 = PRODUCT_RELATED_PRODUCT_CATEGORY ( 'detail', '', ( #207 ) ) ;
#58 = CARTESIAN_POINT ( 'NONE',  ( 0.000000000000000000, 0.000000000000000000, 260.0000000000000000 ) ) ;
#59 = DIRECTION ( 'NONE',  ( -0.000000000000000000, -0.000000000000000000, -1.000000000000000000 ) ) ;
#60 = MECHANICAL_CONTEXT ( 'NONE', #192, 'mechanical' ) ;
#61 = VECTOR ( 'NONE', #175, 1000.000000000000000 ) ;
#62 = DIRECTION ( 'NONE',  ( 0.000000000000000000, 0.000000000000000000, 1.000000000000000000 ) ) ;
#63 = APPROVAL_ROLE ( '' ) ;
#64 = VECTOR ( 'NONE', #158, 1000.000000000000000 ) ;
#65 = DATE_AND_TIME ( #29, #201 ) ;
#66 = ORIENTED_EDGE ( 'NONE', *, *, #210, .F. ) ;
#67 = CARTESIAN_POINT ( 'NONE',  ( -50.00000000000000000, 0.000000000000000000, 260.0000000000000000 ) ) ;
#68 = COORDINATED_UNIVERSAL_TIME_OFFSET ( 8, 0, .AHEAD. ) ;
#69 = EDGE_LOOP ( 'NONE', ( #196, #244 ) ) ;
#70 = ORGANIZATION ( 'æœª', 'æœª', '' ) ;
#71 = EDGE_CURVE ( 'NONE', #51, #144, #10, .T. ) ;
#72 = ORIENTED_EDGE ( 'NONE', *, *, #76, .T. ) ;
#73 = DIRECTION ( 'NONE',  ( -0.000000000000000000, -0.000000000000000000, -1.000000000000000000 ) ) ;
#74 = ADVANCED_FACE ( 'NONE', ( #206 ), #127, .F. ) ;
#75 = VECTOR ( 'NONE', #73, 1000.000000000000000 ) ;
#76 = EDGE_CURVE ( 'NONE', #120, #30, #248, .T. ) ;
#77 = MANIFOLD_SOLID_BREP ( 'Í¹Ì¨-À­Éì1', #171 ) ;
#78 = DIRECTION ( 'NONE',  ( 0.000000000000000000, 0.000000000000000000, 1.000000000000000000 ) ) ;
#79 = DIRECTION ( 'NONE',  ( 1.000000000000000000, 0.000000000000000000, 0.000000000000000000 ) ) ;
#80 = CARTESIAN_POINT ( 'NONE',  ( -47.50000000000000711, 0.000000000000000000, 260.0000000000000000 ) ) ;
#81 = AXIS2_PLACEMENT_3D ( 'NONE', #95, #78, #79 ) ;
#82 = DIRECTION ( 'NONE',  ( 0.000000000000000000, 0.000000000000000000, 1.000000000000000000 ) ) ;
#83 = PLANE ( 'NONE',  #130 ) ;
#84 = CALENDAR_DATE ( 2025, 27, 4 ) ;
#85 = ORIENTED_EDGE ( 'NONE', *, *, #168, .T. ) ;
#86 = AXIS2_PLACEMENT_3D ( 'NONE', #14, #146, #109 ) ;
#87 = EDGE_LOOP ( 'NONE', ( #221, #28 ) ) ;
#88 = CALENDAR_DATE ( 2025, 27, 4 ) ;
#89 = ORIENTED_EDGE ( 'NONE', *, *, #139, .T. ) ;
#90 = CC_DESIGN_PERSON_AND_ORGANIZATION_ASSIGNMENT ( #140, #198, ( #118 ) ) ;
#91 = CARTESIAN_POINT ( 'NONE',  ( 50.00000000000000000, 6.123233995736766085E-15, 0.000000000000000000 ) ) ;
#92 = LOCAL_TIME ( 12, 23, 9.000000000000000000, #53 ) ;
#93 = AXIS2_PLACEMENT_3D ( 'NONE', #245, #24, #152 ) ;
#94 = ADVANCED_FACE ( 'NONE', ( #110 ), #185, .F. ) ;
#95 = CARTESIAN_POINT ( 'NONE',  ( 0.000000000000000000, 0.000000000000000000, 0.000000000000000000 ) ) ;
#96 = CIRCLE ( 'NONE', #86, 50.00000000000000000 ) ;
#97 = CARTESIAN_POINT ( 'NONE',  ( 0.000000000000000000, 0.000000000000000000, 260.0000000000000000 ) ) ;
#98 = DIRECTION ( 'NONE',  ( 1.000000000000000000, 0.000000000000000000, 0.000000000000000000 ) ) ;
#99 = LINE ( 'NONE', #80, #61 ) ;
#100 = APPROVAL ( #203, 'æœª' ) ;
#101 = ORIENTED_EDGE ( 'NONE', *, *, #246, .F. ) ;
#102 = DATE_TIME_ROLE ( 'classification_date' ) ;
#103 = ORIENTED_EDGE ( 'NONE', *, *, #46, .T. ) ;
#104 = PERSON_AND_ORGANIZATION ( #230, #70 ) ;
#105 = EDGE_LOOP ( 'NONE', ( #89, #72, #9, #101 ) ) ;
#106 = AXIS2_PLACEMENT_3D ( 'NONE', #22, #62, #4 ) ;
#107 = DATE_AND_TIME ( #119, #224 ) ;
#108 = CARTESIAN_POINT ( 'NONE',  ( 50.00000000000000000, 6.123233995736766085E-15, 260.0000000000000000 ) ) ;
#109 = DIRECTION ( 'NONE',  ( 1.000000000000000000, 0.000000000000000000, 0.000000000000000000 ) ) ;
#110 = FACE_OUTER_BOUND ( 'NONE', #35, .T. ) ;
#111 = CIRCLE ( 'NONE', #154, 47.50000000000000711 ) ;
#112 = CC_DESIGN_DATE_AND_TIME_ASSIGNMENT ( #223, #15, ( #118 ) ) ;
#113 = CARTESIAN_POINT ( 'NONE',  ( 0.000000000000000000, 0.000000000000000000, 260.0000000000000000 ) ) ;
#114 = DIRECTION ( 'NONE',  ( 1.000000000000000000, 0.000000000000000000, 0.000000000000000000 ) ) ;
#115 =( NAMED_UNIT ( * ) PLANE_ANGLE_UNIT ( ) SI_UNIT ( $, .RADIAN. ) );
#116 = CYLINDRICAL_SURFACE ( 'NONE', #38, 50.00000000000000000 ) ;
#117 = ORIENTED_EDGE ( 'NONE', *, *, #56, .F. ) ;
#118 = PRODUCT_DEFINITION ( 'æœ', '', #179, #208 ) ;
#119 = CALENDAR_DATE ( 2025, 27, 4 ) ;
#120 = VERTEX_POINT ( 'NONE', #209 ) ;
#121 = SHAPE_DEFINITION_REPRESENTATION ( #6, #55 ) ;
#122 = CARTESIAN_POINT ( 'NONE',  ( 47.50000000000000711, 5.817072295949929004E-15, 0.000000000000000000 ) ) ;
#123 = ORIENTED_EDGE ( 'NONE', *, *, #246, .T. ) ;
#124 = AXIS2_PLACEMENT_3D ( 'NONE', #149, #18, #227 ) ;
#125 = PERSON_AND_ORGANIZATION_ROLE ( 'classification_officer' ) ;
#126 = ORIENTED_EDGE ( 'NONE', *, *, #37, .T. ) ;
#127 = CYLINDRICAL_SURFACE ( 'NONE', #124, 47.50000000000000711 ) ;
#128 = APPROVAL ( #45, 'æœª' ) ;
#129 = CC_DESIGN_SECURITY_CLASSIFICATION ( #161, ( #179 ) ) ;
#130 = AXIS2_PLACEMENT_3D ( 'NONE', #176, #16, #50 ) ;
#131 = CIRCLE ( 'NONE', #52, 50.00000000000000000 ) ;
#132 = DIRECTION ( 'NONE',  ( 1.000000000000000000, 0.000000000000000000, 0.000000000000000000 ) ) ;
#133 = CC_DESIGN_PERSON_AND_ORGANIZATION_ASSIGNMENT ( #147, #241, ( #179 ) ) ;
#134 = FACE_OUTER_BOUND ( 'NONE', #87, .T. ) ;
#135 = APPROVAL_PERSON_ORGANIZATION ( #104, #44, #157 ) ;
#136 = CC_DESIGN_APPROVAL ( #44, ( #179 ) ) ;
#137 = DIRECTION ( 'NONE',  ( 0.000000000000000000, 0.000000000000000000, 1.000000000000000000 ) ) ;
#138 = DIRECTION ( 'NONE',  ( 0.000000000000000000, 0.000000000000000000, 1.000000000000000000 ) ) ;
#139 = EDGE_CURVE ( 'NONE', #165, #120, #213, .T. ) ;
#140 = PERSON_AND_ORGANIZATION ( #230, #70 ) ;
#141 = APPROVAL_STATUS ( 'not_yet_approved' ) ;
#142 = LOCAL_TIME ( 12, 23, 9.000000000000000000, #8 ) ;
#143 = COORDINATED_UNIVERSAL_TIME_OFFSET ( 8, 0, .AHEAD. ) ;
#144 = VERTEX_POINT ( 'NONE', #190 ) ;
#145 = PERSON_AND_ORGANIZATION ( #230, #70 ) ;
#146 = DIRECTION ( 'NONE',  ( 0.000000000000000000, 0.000000000000000000, 1.000000000000000000 ) ) ;
#147 = PERSON_AND_ORGANIZATION ( #230, #70 ) ;
#148 = FACE_BOUND ( 'NONE', #178, .T. ) ;
#149 = CARTESIAN_POINT ( 'NONE',  ( 0.000000000000000000, 0.000000000000000000, 260.0000000000000000 ) ) ;
#150 = CC_DESIGN_APPROVAL ( #128, ( #118 ) ) ;
#151 = PLANE ( 'NONE',  #222 ) ;
#152 = DIRECTION ( 'NONE',  ( -1.000000000000000000, 0.000000000000000000, 0.000000000000000000 ) ) ;
#153 = CARTESIAN_POINT ( 'NONE',  ( 0.000000000000000000, 0.000000000000000000, 0.000000000000000000 ) ) ;
#154 = AXIS2_PLACEMENT_3D ( 'NONE', #2, #82, #214 ) ;
#155 =( LENGTH_UNIT ( ) NAMED_UNIT ( * ) SI_UNIT ( .MILLI., .METRE. ) );
#156 = EDGE_CURVE ( 'NONE', #120, #165, #20, .T. ) ;
#157 = APPROVAL_ROLE ( '' ) ;
#158 = DIRECTION ( 'NONE',  ( -0.000000000000000000, -0.000000000000000000, -1.000000000000000000 ) ) ;
#159 = VECTOR ( 'NONE', #199, 1000.000000000000000 ) ;
#160 = APPLICATION_PROTOCOL_DEFINITION ( 'international standard', 'config_control_design', 1994, #17 ) ;
#161 = SECURITY_CLASSIFICATION ( '', '', #33 ) ;
#162 = ORIENTED_EDGE ( 'NONE', *, *, #234, .T. ) ;
#163 = ORIENTED_EDGE ( 'NONE', *, *, #228, .T. ) ;
#164 = PERSON_AND_ORGANIZATION ( #230, #70 ) ;
#165 = VERTEX_POINT ( 'NONE', #232 ) ;
#166 = ORIENTED_EDGE ( 'NONE', *, *, #228, .F. ) ;
#167 = CIRCLE ( 'NONE', #81, 50.00000000000000000 ) ;
#168 = EDGE_CURVE ( 'NONE', #182, #30, #111, .T. ) ;
#169 = CC_DESIGN_APPROVAL ( #100, ( #161 ) ) ;
#170 = FACE_BOUND ( 'NONE', #69, .T. ) ;
#171 = CLOSED_SHELL ( 'NONE', ( #74, #204, #240, #5, #184, #94 ) ) ;
#172 = FACE_OUTER_BOUND ( 'NONE', #202, .T. ) ;
#173 = DIRECTION ( 'NONE',  ( 0.000000000000000000, 0.000000000000000000, 1.000000000000000000 ) ) ;
#174 =( GEOMETRIC_REPRESENTATION_CONTEXT ( 3 ) GLOBAL_UNCERTAINTY_ASSIGNED_CONTEXT ( ( #247 ) ) GLOBAL_UNIT_ASSIGNED_CONTEXT ( ( #155, #115, #191 ) ) REPRESENTATION_CONTEXT ( 'NONE', 'WORKASPACE' ) );
#175 = DIRECTION ( 'NONE',  ( -0.000000000000000000, -0.000000000000000000, -1.000000000000000000 ) ) ;
#176 = CARTESIAN_POINT ( 'NONE',  ( 0.000000000000000000, 0.000000000000000000, 0.000000000000000000 ) ) ;
#177 = PERSON_AND_ORGANIZATION ( #230, #70 ) ;
#178 = EDGE_LOOP ( 'NONE', ( #85, #163 ) ) ;
#179 = PRODUCT_DEFINITION_FORMATION_WITH_SPECIFIED_SOURCE ( 'ä»', '', #207, .NOT_KNOWN. ) ;
#180 = DATE_AND_TIME ( #88, #142 ) ;
#181 = ORIENTED_EDGE ( 'NONE', *, *, #71, .F. ) ;
#182 = VERTEX_POINT ( 'NONE', #43 ) ;
#183 = CARTESIAN_POINT ( 'NONE',  ( 0.000000000000000000, 0.000000000000000000, 260.0000000000000000 ) ) ;
#184 = ADVANCED_FACE ( 'NONE', ( #249 ), #211, .T. ) ;
#185 = CYLINDRICAL_SURFACE ( 'NONE', #93, 47.50000000000000711 ) ;
#186 = DIRECTION ( 'NONE',  ( 0.000000000000000000, 0.000000000000000000, 1.000000000000000000 ) ) ;
#187 = CIRCLE ( 'NONE', #106, 47.50000000000000711 ) ;
#188 = DIRECTION ( 'NONE',  ( -1.000000000000000000, 0.000000000000000000, 0.000000000000000000 ) ) ;
#189 = CC_DESIGN_PERSON_AND_ORGANIZATION_ASSIGNMENT ( #164, #235, ( #207 ) ) ;
#190 = CARTESIAN_POINT ( 'NONE',  ( 50.00000000000000000, 6.123233995736766085E-15, 260.0000000000000000 ) ) ;
#191 =( NAMED_UNIT ( * ) SI_UNIT ( $, .STERADIAN. ) SOLID_ANGLE_UNIT ( ) );
#192 = APPLICATION_CONTEXT ( 'configuration controlled 3d designs of mechanical parts and assemblies' ) ;
#193 = CARTESIAN_POINT ( 'NONE',  ( 0.000000000000000000, 0.000000000000000000, 260.0000000000000000 ) ) ;
#194 = APPROVAL_PERSON_ORGANIZATION ( #220, #128, #63 ) ;
#195 = CC_DESIGN_DATE_AND_TIME_ASSIGNMENT ( #107, #102, ( #161 ) ) ;
#196 = ORIENTED_EDGE ( 'NONE', *, *, #139, .F. ) ;
#197 = ORIENTED_EDGE ( 'NONE', *, *, #234, .F. ) ;
#198 = PERSON_AND_ORGANIZATION_ROLE ( 'creator' ) ;
#199 = DIRECTION ( 'NONE',  ( -0.000000000000000000, -0.000000000000000000, -1.000000000000000000 ) ) ;
#200 = AXIS2_PLACEMENT_3D ( 'NONE', #183, #186, #19 ) ;
#201 = LOCAL_TIME ( 12, 23, 9.000000000000000000, #217 ) ;
#202 = EDGE_LOOP ( 'NONE', ( #66, #126, #162, #238 ) ) ;
#203 = APPROVAL_STATUS ( 'not_yet_approved' ) ;
#204 = ADVANCED_FACE ( 'NONE', ( #172 ), #116, .T. ) ;
#205 = ORIENTED_EDGE ( 'NONE', *, *, #56, .T. ) ;
#206 = FACE_OUTER_BOUND ( 'NONE', #105, .T. ) ;
#207 = PRODUCT ( '1020117-\X2\7ad681c259577b5258f3\X0\-V1.0', '1020117-\X2\7ad681c259577b5258f3\X0\-V1.0', '', ( #60 ) ) ;
#208 = DESIGN_CONTEXT ( 'detailed design', #17, 'design' ) ;
#209 = CARTESIAN_POINT ( 'NONE',  ( 47.50000000000000711, 5.817072295949929004E-15, 260.0000000000000000 ) ) ;
#210 = EDGE_CURVE ( 'NONE', #144, #51, #131, .T. ) ;
#211 = CYLINDRICAL_SURFACE ( 'NONE', #3, 50.00000000000000000 ) ;
#212 = DIRECTION ( 'NONE',  ( 1.000000000000000000, 0.000000000000000000, -0.000000000000000000 ) ) ;
#213 = CIRCLE ( 'NONE', #229, 47.50000000000000711 ) ;
#214 = DIRECTION ( 'NONE',  ( 1.000000000000000000, 0.000000000000000000, 0.000000000000000000 ) ) ;
#215 = DIRECTION ( 'NONE',  ( 1.000000000000000000, 0.000000000000000000, 0.000000000000000000 ) ) ;
#216 = APPROVAL_DATE_TIME ( #65, #44 ) ;
#217 = COORDINATED_UNIVERSAL_TIME_OFFSET ( 8, 0, .AHEAD. ) ;
#218 = PERSON_AND_ORGANIZATION_ROLE ( 'creator' ) ;
#219 = EDGE_LOOP ( 'NONE', ( #7, #181, #103, #205 ) ) ;
#220 = PERSON_AND_ORGANIZATION ( #230, #70 ) ;
#221 = ORIENTED_EDGE ( 'NONE', *, *, #71, .T. ) ;
#222 = AXIS2_PLACEMENT_3D ( 'NONE', #193, #231, #212 ) ;
#223 = DATE_AND_TIME ( #27, #42 ) ;
#224 = LOCAL_TIME ( 12, 23, 9.000000000000000000, #68 ) ;
#225 = LINE ( 'NONE', #31, #64 ) ;
#226 = ORIENTED_EDGE ( 'NONE', *, *, #76, .F. ) ;
#227 = DIRECTION ( 'NONE',  ( -1.000000000000000000, 0.000000000000000000, 0.000000000000000000 ) ) ;
#228 = EDGE_CURVE ( 'NONE', #30, #182, #187, .T. ) ;
#229 = AXIS2_PLACEMENT_3D ( 'NONE', #58, #137, #132 ) ;
#230 = PERSON ( 'æœª', 'æœª', 'æœª', ('æœª'), ('æœª'), ('æœª') ) ;
#231 = DIRECTION ( 'NONE',  ( 0.000000000000000000, 0.000000000000000000, 1.000000000000000000 ) ) ;
#232 = CARTESIAN_POINT ( 'NONE',  ( -47.50000000000000711, 0.000000000000000000, 260.0000000000000000 ) ) ;
#233 = CARTESIAN_POINT ( 'NONE',  ( 0.000000000000000000, 0.000000000000000000, 260.0000000000000000 ) ) ;
#234 = EDGE_CURVE ( 'NONE', #54, #48, #167, .T. ) ;
#235 = PERSON_AND_ORGANIZATION_ROLE ( 'design_owner' ) ;
#236 = FACE_OUTER_BOUND ( 'NONE', #34, .T. ) ;
#237 = APPROVAL_DATE_TIME ( #13, #128 ) ;
#238 = ORIENTED_EDGE ( 'NONE', *, *, #46, .F. ) ;
#239 = CARTESIAN_POINT ( 'NONE',  ( -50.00000000000000000, 0.000000000000000000, 0.000000000000000000 ) ) ;
#240 = ADVANCED_FACE ( 'NONE', ( #134, #170 ), #151, .T. ) ;
#241 = PERSON_AND_ORGANIZATION_ROLE ( 'design_supplier' ) ;
#242 = LINE ( 'NONE', #108, #159 ) ;
#243 = AXIS2_PLACEMENT_3D ( 'NONE', #113, #23, #98 ) ;
#244 = ORIENTED_EDGE ( 'NONE', *, *, #156, .F. ) ;
#245 = CARTESIAN_POINT ( 'NONE',  ( 0.000000000000000000, 0.000000000000000000, 260.0000000000000000 ) ) ;
#246 = EDGE_CURVE ( 'NONE', #165, #182, #99, .T. ) ;
#247 = UNCERTAINTY_MEASURE_WITH_UNIT (LENGTH_MEASURE( 1.000000000000000082E-05 ), #155, 'distance_accuracy_value', 'NONE');
#248 = LINE ( 'NONE', #36, #75 ) ;
#249 = FACE_OUTER_BOUND ( 'NONE', #219, .T. ) ;
ENDSEC;
END-ISO-10303-21;
